<svg width="19" height="19" viewBox="0 0 19 19" fill="none" xmlns="http://www.w3.org/2000/svg">
<path d="M18.3411 12.7414C18.2455 12.6541 18.1053 12.6369 17.9911 12.6972C14.722 14.4311 10.7101 13.2778 8.85899 10.0715C7.00787 6.86513 8.01457 2.81459 11.1509 0.84991C11.2605 0.781365 11.3152 0.651089 11.2874 0.524942C11.2597 0.398588 11.1557 0.303204 11.0274 0.286893C8.99525 0.0257211 6.98288 0.429764 5.20671 1.45546C3.05828 2.69525 1.52139 4.69833 0.879303 7.09471C0.237212 9.4911 0.566723 11.994 1.80734 14.1426C3.04775 16.2913 5.05062 17.8282 7.44701 18.4703C8.24725 18.6846 9.05925 18.7907 9.8661 18.7907C11.4755 18.7907 13.064 18.3687 14.4949 17.5424C16.2707 16.5171 17.6271 14.9761 18.4171 13.0858C18.467 12.9664 18.4365 12.8287 18.3411 12.7414Z" fill="#0A0D12"/>
</svg>
