<svg width="25" height="30" viewBox="0 0 25 30" fill="none" xmlns="http://www.w3.org/2000/svg">
<path d="M0 7.40665V22.5933C0 24.6859 1.4226 26.393 3.16643 26.393H13.3949C15.1387 26.393 16.5613 24.6859 16.5613 22.5933V20.1335C16.5613 19.7175 16.2808 19.3809 15.9341 19.3809C15.5874 19.3809 15.307 19.7175 15.307 20.1335V22.5933C15.307 23.8598 14.4452 24.8939 13.3898 24.8939H3.16643C2.11095 24.8939 1.24924 23.8598 1.24924 22.5933V7.40665C1.24924 6.14008 2.11095 5.10602 3.16643 5.10602H13.3949C14.4503 5.10602 15.3121 6.14008 15.3121 7.40665V9.86637C15.3121 10.2824 15.5925 10.619 15.9392 10.619C16.2859 10.619 16.5664 10.2824 16.5664 9.86637V7.40665C16.5664 5.31405 15.1438 3.60693 13.4 3.60693H3.16643C1.4226 3.60693 0 5.30793 0 7.40665Z" fill="#424255"/>
<path d="M19.6512 20.6598C19.7736 20.8066 19.9316 20.88 20.0948 20.88C20.258 20.88 20.416 20.8066 20.5384 20.6598L24.8164 15.5262C25.0612 15.2325 25.0612 14.7613 24.8164 14.4676L20.5384 9.33404C20.2937 9.04035 19.9011 9.04035 19.6563 9.33404C19.4116 9.62774 19.4116 10.0989 19.6563 10.3926L22.8686 14.2474H11.1462C10.7995 14.2474 10.519 14.5839 10.519 15C10.519 15.416 10.7995 15.7526 11.1462 15.7526H22.8635L19.6512 19.6073C19.4065 19.8949 19.4065 20.3722 19.6512 20.6598Z" fill="#424255"/>
</svg>
