<svg width="20" height="20" viewBox="0 0 20 20" fill="none" xmlns="http://www.w3.org/2000/svg">
<path d="M16.2292 0.25C18.1737 0.25 19.75 1.82633 19.75 3.77083V11.2227C19.75 11.8692 19.4932 12.4892 19.0361 12.9463L12.9463 19.0361C12.4892 19.4932 11.8692 19.75 11.2227 19.75H3.77083C1.82633 19.75 0.25 18.1737 0.25 16.2292V3.77083C0.25 1.82633 1.82633 0.25 3.77083 0.25H16.2292ZM16.2292 1.875H3.77083C2.72379 1.875 1.875 2.72379 1.875 3.77083V16.2292C1.875 17.2762 2.72379 18.125 3.77083 18.125H11.0833V14.6042C11.0833 12.7267 12.5528 11.1925 14.4044 11.0889L14.6042 11.0833H18.125V3.77083C18.125 2.72379 17.2762 1.875 16.2292 1.875ZM16.9756 12.7083H14.6042C13.6095 12.7083 12.7937 13.4744 12.7146 14.4487L12.7083 14.6042V16.9756L16.9756 12.7083Z" fill="white"/>
</svg>
