<svg class="searchIcon" width="29" height="31" viewBox="0 0 29 31" fill="none" xmlns="http://www.w3.org/2000/svg">
<path class="searchIcon" fill-rule="evenodd" clip-rule="evenodd" d="M23.7807 11.8904C23.7807 18.4572 18.4572 23.7807 11.8904 23.7807C5.3235 23.7807 0 18.4572 0 11.8904C0 5.3235 5.3235 0 11.8904 0C18.4572 0 23.7807 5.3235 23.7807 11.8904ZM11.8904 19.457C16.0693 19.457 19.457 16.0693 19.457 11.8904C19.457 7.71145 16.0693 4.32377 11.8904 4.32377C7.71145 4.32377 4.32377 7.71145 4.32377 11.8904C4.32377 16.0693 7.71145 19.457 11.8904 19.457Z" fill="#5C426C"/>
<path class="searchIcon" fill-rule="evenodd" clip-rule="evenodd" d="M25.9427 30.2664L17.2952 21.6189L20.3525 18.5615L29.0001 27.2091L25.9427 30.2664Z" fill="#5C426C"/>
</svg>
