<svg width="18" height="18" viewBox="0 0 18 18" fill="none" xmlns="http://www.w3.org/2000/svg">
<path d="M8.98997 7.83355e-05C8.81986 0.00273737 8.65776 0.0727772 8.53924 0.194826C8.42072 0.316875 8.35547 0.480961 8.3578 0.651073V2.57772C8.35659 2.66282 8.37231 2.74731 8.40405 2.82628C8.43578 2.90525 8.48289 2.97713 8.54265 3.03773C8.6024 3.09834 8.6736 3.14646 8.75212 3.17931C8.83063 3.21216 8.91489 3.22908 9 3.22908C9.08511 3.22908 9.16937 3.21216 9.24788 3.17931C9.3264 3.14646 9.3976 3.09834 9.45735 3.03773C9.51711 2.97713 9.56422 2.90525 9.59595 2.82628C9.62769 2.74731 9.64341 2.66282 9.6422 2.57772V0.651073C9.64338 0.565151 9.6273 0.479867 9.59493 0.400271C9.56255 0.320675 9.51453 0.248385 9.45371 0.187682C9.39289 0.126979 9.32051 0.0790979 9.24085 0.0468734C9.1612 0.0146488 9.07588 -0.00126364 8.98997 7.83355e-05ZM3.08972 2.44852C2.96207 2.4488 2.8374 2.48712 2.73162 2.55857C2.62585 2.63002 2.54376 2.73138 2.49584 2.84969C2.44792 2.96801 2.43635 3.09792 2.46259 3.22284C2.48884 3.34777 2.55171 3.46204 2.64319 3.55107L4.00536 4.91327C4.06454 4.9749 4.13542 5.02411 4.21385 5.05801C4.29228 5.0919 4.37668 5.10981 4.46212 5.11068C4.54756 5.11155 4.63231 5.09536 4.71142 5.06307C4.79052 5.03077 4.86239 4.98301 4.9228 4.9226C4.98322 4.86218 5.03098 4.79031 5.06327 4.71121C5.09557 4.6321 5.11176 4.54735 5.11089 4.46191C5.11002 4.37647 5.09211 4.29206 5.05821 4.21363C5.02432 4.13519 4.97511 4.06431 4.91348 4.00514L3.5513 2.64294C3.49131 2.58127 3.41953 2.53228 3.34024 2.49888C3.26095 2.46548 3.17576 2.44836 3.08972 2.44852ZM14.8902 2.44852C14.7234 2.45349 14.565 2.52322 14.4487 2.64294L13.0865 4.00514C13.0249 4.06431 12.9757 4.13519 12.9418 4.21363C12.9079 4.29206 12.89 4.37647 12.8891 4.46191C12.8882 4.54734 12.9044 4.6321 12.9367 4.7112C12.969 4.79031 13.0168 4.86217 13.0772 4.92259C13.1376 4.98301 13.2095 5.03077 13.2886 5.06306C13.3677 5.09536 13.4524 5.11155 13.5379 5.11068C13.6233 5.10981 13.7077 5.0919 13.7862 5.058C13.8646 5.02411 13.9355 4.9749 13.9946 4.91327L15.3568 3.55107C15.4496 3.46086 15.513 3.34473 15.5387 3.21788C15.5643 3.09103 15.5511 2.95938 15.5006 2.8402C15.4502 2.72101 15.3649 2.61984 15.256 2.54995C15.1471 2.48006 15.0196 2.4447 14.8902 2.44852ZM9 4.50436C7.80774 4.50436 6.66431 4.97799 5.82125 5.82106C4.9782 6.66413 4.50457 7.80758 4.50457 8.99986C4.50457 10.1921 4.9782 11.3356 5.82125 12.1787C6.66431 13.0217 7.80774 13.4954 9 13.4954C10.1923 13.4954 11.3357 13.0217 12.1787 12.1787C13.0218 11.3356 13.4954 10.1921 13.4954 8.99986C13.4954 7.80758 13.0218 6.66413 12.1787 5.82106C11.3357 4.97799 10.1923 4.50436 9 4.50436ZM0.65135 8.35764C0.566251 8.35644 0.481761 8.37216 0.40279 8.40389C0.323819 8.43563 0.251943 8.48274 0.191338 8.5425C0.130734 8.60225 0.0826097 8.67346 0.0497624 8.75197C0.0169151 8.83049 0 8.91475 0 8.99986C0 9.08497 0.0169151 9.16923 0.0497624 9.24774C0.0826097 9.32626 0.130734 9.39746 0.191338 9.45722C0.251943 9.51697 0.323819 9.56408 0.40279 9.59582C0.481761 9.62755 0.566251 9.64327 0.65135 9.64207H2.57796C2.66306 9.64327 2.74755 9.62755 2.82652 9.59582C2.90549 9.56408 2.97737 9.51697 3.03797 9.45722C3.09858 9.39746 3.1467 9.32626 3.17955 9.24774C3.2124 9.16923 3.22931 9.08497 3.22931 8.99986C3.22931 8.91475 3.2124 8.83049 3.17955 8.75197C3.1467 8.67346 3.09858 8.60225 3.03797 8.5425C2.97737 8.48274 2.90549 8.43563 2.82652 8.40389C2.74755 8.37216 2.66306 8.35644 2.57796 8.35764H0.65135ZM15.422 8.35764C15.3369 8.35644 15.2524 8.37216 15.1735 8.40389C15.0945 8.43563 15.0226 8.48274 14.962 8.5425C14.9014 8.60225 14.8533 8.67346 14.8205 8.75197C14.7876 8.83049 14.7707 8.91475 14.7707 8.99986C14.7707 9.08497 14.7876 9.16923 14.8205 9.24774C14.8533 9.32626 14.9014 9.39746 14.962 9.45722C15.0226 9.51697 15.0945 9.56408 15.1735 9.59582C15.2524 9.62755 15.3369 9.64327 15.422 9.64207H17.3486C17.4337 9.64327 17.5182 9.62755 17.5972 9.59582C17.6762 9.56408 17.7481 9.51697 17.8087 9.45722C17.8693 9.39746 17.9174 9.32626 17.9502 9.24774C17.9831 9.16923 18 9.08497 18 8.99986C18 8.91475 17.9831 8.83049 17.9502 8.75197C17.9174 8.67346 17.8693 8.60225 17.8087 8.5425C17.7481 8.48274 17.6762 8.43563 17.5972 8.40389C17.5182 8.37216 17.4337 8.35644 17.3486 8.35764H15.422ZM4.44688 12.892C4.28003 12.897 4.12168 12.9667 4.00536 13.0864L2.64319 14.4486C2.58155 14.5078 2.53235 14.5787 2.49845 14.6571C2.46455 14.7356 2.44665 14.82 2.44578 14.9054C2.44491 14.9909 2.4611 15.0756 2.49339 15.1547C2.52569 15.2338 2.57344 15.3057 2.63386 15.3661C2.69428 15.4265 2.76614 15.4743 2.84525 15.5066C2.92435 15.5389 3.0091 15.5551 3.09454 15.5542C3.17998 15.5533 3.26438 15.5354 3.34282 15.5015C3.42125 15.4676 3.49213 15.4184 3.5513 15.3568L4.91348 13.9946C5.00628 13.9044 5.06966 13.7882 5.09532 13.6614C5.12099 13.5345 5.10773 13.4029 5.05729 13.2837C5.00685 13.1645 4.92158 13.0633 4.81266 12.9935C4.70373 12.9236 4.57624 12.8882 4.44688 12.892ZM13.5343 12.892C13.4066 12.8921 13.2817 12.9302 13.1757 13.0016C13.0698 13.0729 12.9875 13.1743 12.9394 13.2926C12.8913 13.411 12.8797 13.541 12.9059 13.666C12.9321 13.7911 12.995 13.9055 13.0865 13.9946L14.4487 15.3568C14.5079 15.4184 14.5788 15.4676 14.6572 15.5015C14.7356 15.5354 14.82 15.5533 14.9055 15.5542C14.9909 15.555 15.0756 15.5389 15.1548 15.5066C15.2339 15.4743 15.3057 15.4265 15.3661 15.3661C15.4266 15.3057 15.4743 15.2338 15.5066 15.1547C15.5389 15.0756 15.5551 14.9908 15.5542 14.9054C15.5534 14.82 15.5354 14.7356 15.5015 14.6571C15.4677 14.5787 15.4184 14.5078 15.3568 14.4486L13.9946 13.0864C13.9348 13.0249 13.8632 12.976 13.7842 12.9426C13.7051 12.9092 13.6201 12.892 13.5343 12.892ZM8.98997 14.771C8.81986 14.7737 8.65776 14.8437 8.53924 14.9658C8.42072 15.0878 8.35547 15.2519 8.3578 15.422V17.3486C8.35659 17.4337 8.37231 17.5182 8.40405 17.5972C8.43578 17.6762 8.48289 17.7481 8.54265 17.8087C8.6024 17.8693 8.6736 17.9174 8.75212 17.9502C8.83063 17.9831 8.91489 18 9 18C9.08511 18 9.16937 17.9831 9.24788 17.9502C9.3264 17.9174 9.3976 17.8693 9.45735 17.8087C9.51711 17.7481 9.56422 17.6762 9.59595 17.5972C9.62769 17.5182 9.64341 17.4337 9.6422 17.3486V15.422C9.64338 15.3361 9.6273 15.2508 9.59493 15.1712C9.56255 15.0916 9.51453 15.0193 9.45371 14.9586C9.39289 14.8979 9.32051 14.85 9.24085 14.8178C9.1612 14.7856 9.07588 14.7697 8.98997 14.771Z" fill="black"/>
</svg>
